<svg width="66" height="19" viewBox="0 0 66 19" fill="none" xmlns="http://www.w3.org/2000/svg">
<path d="M0.646446 9.14645C0.451184 9.34171 0.451184 9.65829 0.646446 9.85355L3.82843 13.0355C4.02369 13.2308 4.34027 13.2308 4.53553 13.0355C4.7308 12.8403 4.7308 12.5237 4.53553 12.3284L1.70711 9.5L4.53553 6.67157C4.7308 6.47631 4.7308 6.15973 4.53553 5.96447C4.34027 5.7692 4.02369 5.7692 3.82843 5.96447L0.646446 9.14645ZM15 9L1 9L1 10L15 10L15 9Z" fill="#2B2B2B"/>
<path d="M23.032 9.56V8.28H30.712V9.56H23.032ZM29.8 3.8H31.16V15H29.8V3.8ZM22.28 3.8H23.64V15H22.28V3.8ZM34.2135 12.84C34.2135 13.096 34.2828 13.3147 34.4215 13.496C34.5602 13.6667 34.7468 13.8 34.9815 13.896C35.2162 13.9813 35.4775 14.024 35.7655 14.024C36.1922 14.024 36.5708 13.96 36.9015 13.832C37.2322 13.704 37.4882 13.5013 37.6695 13.224C37.8615 12.9467 37.9575 12.5787 37.9575 12.12L38.2135 12.92C38.2135 13.3893 38.0855 13.7947 37.8295 14.136C37.5842 14.4667 37.2535 14.7227 36.8375 14.904C36.4215 15.0747 35.9575 15.16 35.4455 15.16C34.9868 15.16 34.5655 15.0747 34.1815 14.904C33.7975 14.7333 33.4882 14.4827 33.2535 14.152C33.0295 13.8107 32.9175 13.3893 32.9175 12.888C32.9175 12.3653 33.0455 11.9227 33.3015 11.56C33.5575 11.1973 33.9202 10.92 34.3895 10.728C34.8588 10.5253 35.4135 10.424 36.0535 10.424C36.5228 10.424 36.9228 10.488 37.2535 10.616C37.5948 10.7333 37.8668 10.872 38.0695 11.032C38.2722 11.1813 38.4108 11.304 38.4855 11.4V12.152C38.1228 11.896 37.7548 11.7093 37.3815 11.592C37.0082 11.464 36.5868 11.4 36.1175 11.4C35.6908 11.4 35.3335 11.4587 35.0455 11.576C34.7682 11.6933 34.5602 11.8587 34.4215 12.072C34.2828 12.2853 34.2135 12.5413 34.2135 12.84ZM34.2135 9.368L33.5895 8.392C33.8668 8.18933 34.2402 7.98667 34.7095 7.784C35.1788 7.58133 35.7442 7.48 36.4055 7.48C36.9708 7.48 37.4615 7.57067 37.8775 7.752C38.3042 7.92267 38.6348 8.17333 38.8695 8.504C39.1148 8.83467 39.2375 9.24 39.2375 9.72V15H37.9575V9.72C37.9575 9.34667 37.7975 9.06933 37.4775 8.888C37.1682 8.696 36.8108 8.6 36.4055 8.6C36.0535 8.6 35.7335 8.648 35.4455 8.744C35.1575 8.82933 34.9068 8.936 34.6935 9.064C34.4908 9.18133 34.3308 9.28267 34.2135 9.368ZM44.0111 11.32V10.52C44.5018 10.52 44.8538 10.4293 45.0671 10.248C45.2805 10.056 45.3871 9.82667 45.3871 9.56C45.3871 9.272 45.2805 9.048 45.0671 8.888C44.8538 8.71733 44.5551 8.632 44.1711 8.632C43.8511 8.632 43.5845 8.696 43.3711 8.824C43.1685 8.94133 43.0191 9.09067 42.9231 9.272C42.8271 9.44267 42.7791 9.61333 42.7791 9.784H41.4831C41.4831 9.368 41.6005 8.984 41.8351 8.632C42.0698 8.28 42.3898 8.00267 42.7951 7.8C43.2005 7.58667 43.6591 7.48 44.1711 7.48C44.6511 7.48 45.0831 7.57067 45.4671 7.752C45.8511 7.93333 46.1498 8.17333 46.3631 8.472C46.5871 8.77067 46.6991 9.10133 46.6991 9.464C46.6991 9.99733 46.4591 10.44 45.9791 10.792C45.5098 11.144 44.8538 11.32 44.0111 11.32ZM44.1391 15.16C43.2751 15.16 42.5818 14.9253 42.0591 14.456C41.5471 13.9867 41.2485 13.3947 41.1631 12.68H42.4591C42.5338 13.032 42.6938 13.3467 42.9391 13.624C43.1845 13.9013 43.5845 14.04 44.1391 14.04C44.4805 14.04 44.7685 13.992 45.0031 13.896C45.2485 13.8 45.4351 13.6613 45.5631 13.48C45.6911 13.2987 45.7551 13.0907 45.7551 12.856C45.7551 12.6 45.6858 12.3813 45.5471 12.2C45.4191 12.0187 45.2218 11.88 44.9551 11.784C44.6991 11.688 44.3845 11.64 44.0111 11.64V10.84C44.9285 10.84 45.6591 11 46.2031 11.32C46.7471 11.64 47.0191 12.1467 47.0191 12.84C47.0191 13.32 46.8858 13.736 46.6191 14.088C46.3631 14.4293 46.0165 14.696 45.5791 14.888C45.1418 15.0693 44.6618 15.16 44.1391 15.16ZM49.5104 12.84C49.5104 13.096 49.5797 13.3147 49.7184 13.496C49.857 13.6667 50.0437 13.8 50.2784 13.896C50.513 13.9813 50.7744 14.024 51.0624 14.024C51.489 14.024 51.8677 13.96 52.1984 13.832C52.529 13.704 52.785 13.5013 52.9664 13.224C53.1584 12.9467 53.2544 12.5787 53.2544 12.12L53.5104 12.92C53.5104 13.3893 53.3824 13.7947 53.1264 14.136C52.881 14.4667 52.5504 14.7227 52.1344 14.904C51.7184 15.0747 51.2544 15.16 50.7424 15.16C50.2837 15.16 49.8624 15.0747 49.4784 14.904C49.0944 14.7333 48.785 14.4827 48.5504 14.152C48.3264 13.8107 48.2144 13.3893 48.2144 12.888C48.2144 12.3653 48.3424 11.9227 48.5984 11.56C48.8544 11.1973 49.217 10.92 49.6864 10.728C50.1557 10.5253 50.7104 10.424 51.3504 10.424C51.8197 10.424 52.2197 10.488 52.5504 10.616C52.8917 10.7333 53.1637 10.872 53.3664 11.032C53.569 11.1813 53.7077 11.304 53.7824 11.4V12.152C53.4197 11.896 53.0517 11.7093 52.6784 11.592C52.305 11.464 51.8837 11.4 51.4144 11.4C50.9877 11.4 50.6304 11.4587 50.3424 11.576C50.065 11.6933 49.857 11.8587 49.7184 12.072C49.5797 12.2853 49.5104 12.5413 49.5104 12.84ZM49.5104 9.368L48.8864 8.392C49.1637 8.18933 49.537 7.98667 50.0064 7.784C50.4757 7.58133 51.041 7.48 51.7024 7.48C52.2677 7.48 52.7584 7.57067 53.1744 7.752C53.601 7.92267 53.9317 8.17333 54.1664 8.504C54.4117 8.83467 54.5344 9.24 54.5344 9.72V15H53.2544V9.72C53.2544 9.34667 53.0944 9.06933 52.7744 8.888C52.465 8.696 52.1077 8.6 51.7024 8.6C51.3504 8.6 51.0304 8.648 50.7424 8.744C50.4544 8.82933 50.2037 8.936 49.9904 9.064C49.7877 9.18133 49.6277 9.28267 49.5104 9.368ZM60.7 9.848L58.54 14.52H57.1L60.7 7.08L64.3 14.52H62.86L60.7 9.848ZM63.98 15H57.5V16.44H56.14V13.8H65.26V16.44H63.98V15Z" fill="#2B2B2B"/>
</svg>
