<svg width="167" height="18" viewBox="0 0 167 18" fill="none" xmlns="http://www.w3.org/2000/svg">
<path d="M7.15192 5.18182C7.15192 4.39105 7.86513 3.75 8.74492 3.75C9.62471 3.75 10.3379 4.39105 10.3379 5.18182C10.3379 5.55399 10.2035 5.893 9.9694 6.14762C9.52108 6.6353 8.85112 7.12647 8.85112 7.75909V7.97243M8.85112 7.97243C9.39976 7.96605 9.95058 8.11843 10.4134 8.43042L15.9878 12.1882C16.9675 12.8487 16.4478 14.25 15.2231 14.25H2.77691C1.5654 14.25 1.03742 12.8736 1.99148 12.2025L7.31325 8.45904C7.76506 8.14123 8.30702 7.97875 8.85112 7.97243Z" stroke="#2B2B2B" stroke-linecap="round"/>
<path d="M25.778 8.74V7.62H32.498V8.74H25.778ZM31.7 3.7H32.89V13.5H31.7V3.7ZM25.12 3.7H26.31V13.5H25.12V3.7ZM35.5618 11.61C35.5618 11.834 35.6225 12.0253 35.7438 12.184C35.8651 12.3333 36.0285 12.45 36.2338 12.534C36.4391 12.6087 36.6678 12.646 36.9198 12.646C37.2931 12.646 37.6245 12.59 37.9138 12.478C38.2031 12.366 38.4271 12.1887 38.5858 11.946C38.7538 11.7033 38.8378 11.3813 38.8378 10.98L39.0618 11.68C39.0618 12.0907 38.9498 12.4453 38.7258 12.744C38.5111 13.0333 38.2218 13.2573 37.8578 13.416C37.4938 13.5653 37.0878 13.64 36.6398 13.64C36.2385 13.64 35.8698 13.5653 35.5338 13.416C35.1978 13.2667 34.9271 13.0473 34.7218 12.758C34.5258 12.4593 34.4278 12.0907 34.4278 11.652C34.4278 11.1947 34.5398 10.8073 34.7638 10.49C34.9878 10.1727 35.3051 9.93 35.7158 9.762C36.1265 9.58467 36.6118 9.496 37.1718 9.496C37.5825 9.496 37.9325 9.552 38.2218 9.664C38.5205 9.76667 38.7585 9.888 38.9358 10.028C39.1131 10.1587 39.2345 10.266 39.2998 10.35V11.008C38.9825 10.784 38.6605 10.6207 38.3338 10.518C38.0071 10.406 37.6385 10.35 37.2278 10.35C36.8545 10.35 36.5418 10.4013 36.2898 10.504C36.0471 10.6067 35.8651 10.7513 35.7438 10.938C35.6225 11.1247 35.5618 11.3487 35.5618 11.61ZM35.5618 8.572L35.0158 7.718C35.2585 7.54067 35.5851 7.36333 35.9958 7.186C36.4065 7.00867 36.9011 6.92 37.4798 6.92C37.9745 6.92 38.4038 6.99933 38.7678 7.158C39.1411 7.30733 39.4305 7.52667 39.6358 7.816C39.8505 8.10533 39.9578 8.46 39.9578 8.88V13.5H38.8378V8.88C38.8378 8.55333 38.6978 8.31067 38.4178 8.152C38.1471 7.984 37.8345 7.9 37.4798 7.9C37.1718 7.9 36.8918 7.942 36.6398 8.026C36.3878 8.10067 36.1685 8.194 35.9818 8.306C35.8045 8.40867 35.6645 8.49733 35.5618 8.572ZM47.4947 7.06V13.5H46.3747V8.11H43.0847V11.26C43.0847 11.764 43.0054 12.184 42.8467 12.52C42.6974 12.8467 42.4641 13.094 42.1467 13.262C41.8294 13.4207 41.4281 13.5 40.9427 13.5V12.478C41.2227 12.478 41.4607 12.3893 41.6567 12.212C41.8621 12.0347 41.9647 11.7173 41.9647 11.26V7.06H47.4947ZM55.0494 8.18L49.7294 13.99L49.7994 12.38L55.1194 6.57L55.0494 8.18ZM50.8494 7.06V12.45L49.7294 13.99V7.06H50.8494ZM55.1194 6.57V13.5H53.9994V8.11L55.1194 6.57ZM59.4583 11.54V10.49H61.6563V11.54H59.4583ZM60.8583 7.06H61.9783V13.5H60.8583V7.06ZM58.0583 7.06V8.908C58.0583 9.28133 58.1003 9.58467 58.1843 9.818C58.2683 10.0513 58.4129 10.224 58.6183 10.336C58.8236 10.4387 59.1036 10.49 59.4583 10.49V11.54C58.8143 11.54 58.3056 11.4513 57.9323 11.274C57.5683 11.0967 57.3116 10.8167 57.1623 10.434C57.0129 10.042 56.9383 9.53333 56.9383 8.908V7.06H58.0583ZM69.4732 8.18L64.1532 13.99L64.2232 12.38L69.5432 6.57L69.4732 8.18ZM65.2732 7.06V12.45L64.1532 13.99V7.06H65.2732ZM69.5432 6.57V13.5H68.4232V8.11L69.5432 6.57ZM71.8661 10.56V9.608H76.1641C76.1268 9.272 76.0334 8.978 75.8841 8.726C75.7441 8.46467 75.5434 8.264 75.2821 8.124C75.0301 7.97467 74.7174 7.9 74.3441 7.9C73.9708 7.9 73.6301 7.97933 73.3221 8.138C73.0141 8.29667 72.7668 8.52533 72.5801 8.824C72.4028 9.11333 72.3141 9.45867 72.3141 9.86L72.2861 10.28C72.2861 10.7747 72.3701 11.1947 72.5381 11.54C72.7061 11.8853 72.9441 12.1467 73.2521 12.324C73.5601 12.5013 73.9241 12.59 74.3441 12.59C74.6614 12.59 74.9414 12.5433 75.1841 12.45C75.4361 12.3473 75.6601 12.212 75.8561 12.044C76.0521 11.8667 76.2201 11.6613 76.3601 11.428L77.2701 12.002C77.0554 12.3287 76.8174 12.618 76.5561 12.87C76.2948 13.1127 75.9774 13.304 75.6041 13.444C75.2308 13.5747 74.7641 13.64 74.2041 13.64C73.6254 13.64 73.1028 13.4953 72.6361 13.206C72.1788 12.9167 71.8148 12.52 71.5441 12.016C71.2828 11.5027 71.1521 10.924 71.1521 10.28C71.1521 10.1587 71.1568 10.042 71.1661 9.93C71.1754 9.818 71.1894 9.706 71.2081 9.594C71.3014 9.062 71.4881 8.59533 71.7681 8.194C72.0481 7.79267 72.4074 7.48 72.8461 7.256C73.2941 7.032 73.7934 6.92 74.3441 6.92C74.9508 6.92 75.4828 7.05533 75.9401 7.326C76.3974 7.59667 76.7521 7.97933 77.0041 8.474C77.2561 8.95933 77.3821 9.54267 77.3821 10.224C77.3821 10.28 77.3821 10.336 77.3821 10.392C77.3821 10.448 77.3774 10.504 77.3681 10.56H71.8661ZM88.3645 7.06V13.5H87.2445V8.11H84.2345V13.5H83.1145V7.06H88.3645ZM91.5199 16.58H90.3999V7.06H91.5199V16.58ZM96.9099 10.28C96.9099 10.9707 96.7653 11.568 96.4759 12.072C96.1866 12.576 95.7993 12.9633 95.3139 13.234C94.8379 13.5047 94.3059 13.64 93.7179 13.64C93.1859 13.64 92.7146 13.5047 92.3039 13.234C91.9026 12.9633 91.5853 12.576 91.3519 12.072C91.1279 11.568 91.0159 10.9707 91.0159 10.28C91.0159 9.58 91.1279 8.98267 91.3519 8.488C91.5853 7.984 91.9026 7.59667 92.3039 7.326C92.7146 7.05533 93.1859 6.92 93.7179 6.92C94.3059 6.92 94.8379 7.05533 95.3139 7.326C95.7993 7.59667 96.1866 7.984 96.4759 8.488C96.7653 8.98267 96.9099 9.58 96.9099 10.28ZM95.7759 10.28C95.7759 9.78533 95.6733 9.36533 95.4679 9.02C95.2719 8.67467 95.0059 8.41333 94.6699 8.236C94.3433 8.05867 93.9793 7.97 93.5779 7.97C93.2513 7.97 92.9293 8.05867 92.6119 8.236C92.2946 8.41333 92.0333 8.67467 91.8279 9.02C91.6226 9.36533 91.5199 9.78533 91.5199 10.28C91.5199 10.7747 91.6226 11.1947 91.8279 11.54C92.0333 11.8853 92.2946 12.1467 92.6119 12.324C92.9293 12.5013 93.2513 12.59 93.5779 12.59C93.9793 12.59 94.3433 12.5013 94.6699 12.324C95.0059 12.1467 95.2719 11.8853 95.4679 11.54C95.6733 11.1947 95.7759 10.7747 95.7759 10.28ZM103.844 8.18L98.5243 13.99L98.5943 12.38L103.914 6.57L103.844 8.18ZM99.6443 7.06V12.45L98.5243 13.99V7.06H99.6443ZM103.914 6.57V13.5H102.794V8.11L103.914 6.57ZM112.201 13.5L111.151 8.39L111.781 6.57L113.461 13.5H112.201ZM108.841 12.534L111.781 6.57L111.921 8.81L109.261 13.934L108.841 12.534ZM109.261 13.934L106.643 8.81L106.783 6.57L109.681 12.534L109.261 13.934ZM105.103 13.5L106.783 6.57L107.413 8.39L106.363 13.5H105.103ZM114.741 10.56V9.608H119.039C119.002 9.272 118.908 8.978 118.759 8.726C118.619 8.46467 118.418 8.264 118.157 8.124C117.905 7.97467 117.592 7.9 117.219 7.9C116.846 7.9 116.505 7.97933 116.197 8.138C115.889 8.29667 115.642 8.52533 115.455 8.824C115.278 9.11333 115.189 9.45867 115.189 9.86L115.161 10.28C115.161 10.7747 115.245 11.1947 115.413 11.54C115.581 11.8853 115.819 12.1467 116.127 12.324C116.435 12.5013 116.799 12.59 117.219 12.59C117.536 12.59 117.816 12.5433 118.059 12.45C118.311 12.3473 118.535 12.212 118.731 12.044C118.927 11.8667 119.095 11.6613 119.235 11.428L120.145 12.002C119.93 12.3287 119.692 12.618 119.431 12.87C119.17 13.1127 118.852 13.304 118.479 13.444C118.106 13.5747 117.639 13.64 117.079 13.64C116.5 13.64 115.978 13.4953 115.511 13.206C115.054 12.9167 114.69 12.52 114.419 12.016C114.158 11.5027 114.027 10.924 114.027 10.28C114.027 10.1587 114.032 10.042 114.041 9.93C114.05 9.818 114.064 9.706 114.083 9.594C114.176 9.062 114.363 8.59533 114.643 8.194C114.923 7.79267 115.282 7.48 115.721 7.256C116.169 7.032 116.668 6.92 117.219 6.92C117.826 6.92 118.358 7.05533 118.815 7.326C119.272 7.59667 119.627 7.97933 119.879 8.474C120.131 8.95933 120.257 9.54267 120.257 10.224C120.257 10.28 120.257 10.336 120.257 10.392C120.257 10.448 120.252 10.504 120.243 10.56H114.741ZM122.842 16.58H121.722V7.06H122.842V16.58ZM128.232 10.28C128.232 10.9707 128.088 11.568 127.798 12.072C127.509 12.576 127.122 12.9633 126.636 13.234C126.16 13.5047 125.628 13.64 125.04 13.64C124.508 13.64 124.037 13.5047 123.626 13.234C123.225 12.9633 122.908 12.576 122.674 12.072C122.45 11.568 122.338 10.9707 122.338 10.28C122.338 9.58 122.45 8.98267 122.674 8.488C122.908 7.984 123.225 7.59667 123.626 7.326C124.037 7.05533 124.508 6.92 125.04 6.92C125.628 6.92 126.16 7.05533 126.636 7.326C127.122 7.59667 127.509 7.984 127.798 8.488C128.088 8.98267 128.232 9.58 128.232 10.28ZM127.098 10.28C127.098 9.78533 126.996 9.36533 126.79 9.02C126.594 8.67467 126.328 8.41333 125.992 8.236C125.666 8.05867 125.302 7.97 124.9 7.97C124.574 7.97 124.252 8.05867 123.934 8.236C123.617 8.41333 123.356 8.67467 123.15 9.02C122.945 9.36533 122.842 9.78533 122.842 10.28C122.842 10.7747 122.945 11.1947 123.15 11.54C123.356 11.8853 123.617 12.1467 123.934 12.324C124.252 12.5013 124.574 12.59 124.9 12.59C125.302 12.59 125.666 12.5013 125.992 12.324C126.328 12.1467 126.594 11.8853 126.79 11.54C126.996 11.1947 127.098 10.7747 127.098 10.28ZM129.217 10.28C129.217 9.62667 129.361 9.048 129.651 8.544C129.949 8.04 130.351 7.64333 130.855 7.354C131.359 7.06467 131.923 6.92 132.549 6.92C133.183 6.92 133.748 7.06467 134.243 7.354C134.747 7.64333 135.143 8.04 135.433 8.544C135.731 9.048 135.881 9.62667 135.881 10.28C135.881 10.924 135.731 11.5027 135.433 12.016C135.143 12.52 134.747 12.9167 134.243 13.206C133.748 13.4953 133.183 13.64 132.549 13.64C131.923 13.64 131.359 13.4953 130.855 13.206C130.351 12.9167 129.949 12.52 129.651 12.016C129.361 11.5027 129.217 10.924 129.217 10.28ZM130.351 10.28C130.351 10.728 130.444 11.1247 130.631 11.47C130.827 11.8153 131.088 12.0907 131.415 12.296C131.751 12.492 132.129 12.59 132.549 12.59C132.969 12.59 133.342 12.492 133.669 12.296C134.005 12.0907 134.266 11.8153 134.453 11.47C134.649 11.1247 134.747 10.728 134.747 10.28C134.747 9.832 134.649 9.43533 134.453 9.09C134.266 8.73533 134.005 8.46 133.669 8.264C133.342 8.068 132.969 7.97 132.549 7.97C132.129 7.97 131.751 8.068 131.415 8.264C131.088 8.46 130.827 8.73533 130.631 9.09C130.444 9.43533 130.351 9.832 130.351 10.28ZM139.589 11.54V10.49H141.787V11.54H139.589ZM140.989 7.06H142.109V13.5H140.989V7.06ZM138.189 7.06V8.908C138.189 9.28133 138.231 9.58467 138.315 9.818C138.399 10.0513 138.544 10.224 138.749 10.336C138.954 10.4387 139.234 10.49 139.589 10.49V11.54C138.945 11.54 138.436 11.4513 138.063 11.274C137.699 11.0967 137.442 10.8167 137.293 10.434C137.144 10.042 137.069 9.53333 137.069 8.908V7.06H138.189ZM144.872 10.63V9.58H149.632V10.63H144.872ZM148.904 7.06H150.024V13.5H148.904V7.06ZM144.214 7.06H145.334V13.5H144.214V7.06ZM151.57 10.28C151.57 9.62667 151.715 9.048 152.004 8.544C152.303 8.04 152.704 7.64333 153.208 7.354C153.712 7.06467 154.277 6.92 154.902 6.92C155.537 6.92 156.101 7.06467 156.596 7.354C157.1 7.64333 157.497 8.04 157.786 8.544C158.085 9.048 158.234 9.62667 158.234 10.28C158.234 10.924 158.085 11.5027 157.786 12.016C157.497 12.52 157.1 12.9167 156.596 13.206C156.101 13.4953 155.537 13.64 154.902 13.64C154.277 13.64 153.712 13.4953 153.208 13.206C152.704 12.9167 152.303 12.52 152.004 12.016C151.715 11.5027 151.57 10.924 151.57 10.28ZM152.704 10.28C152.704 10.728 152.797 11.1247 152.984 11.47C153.18 11.8153 153.441 12.0907 153.768 12.296C154.104 12.492 154.482 12.59 154.902 12.59C155.322 12.59 155.695 12.492 156.022 12.296C156.358 12.0907 156.619 11.8153 156.806 11.47C157.002 11.1247 157.1 10.728 157.1 10.28C157.1 9.832 157.002 9.43533 156.806 9.09C156.619 8.73533 156.358 8.46 156.022 8.264C155.695 8.068 155.322 7.97 154.902 7.97C154.482 7.97 154.104 8.068 153.768 8.264C153.441 8.46 153.18 8.73533 152.984 9.09C152.797 9.43533 152.704 9.832 152.704 10.28ZM165.163 8.18L159.843 13.99L159.913 12.38L165.233 6.57L165.163 8.18ZM160.963 7.06V12.45L159.843 13.99V7.06H160.963ZM165.233 6.57V13.5H164.113V8.11L165.233 6.57ZM160.361 3.77H161.355C161.355 3.89133 161.387 4.036 161.453 4.204C161.518 4.36267 161.639 4.50733 161.817 4.638C161.994 4.75933 162.246 4.82 162.573 4.82C162.899 4.82 163.151 4.75933 163.329 4.638C163.506 4.50733 163.627 4.36267 163.693 4.204C163.758 4.036 163.791 3.89133 163.791 3.77H164.785C164.785 4.08733 164.701 4.4 164.533 4.708C164.374 5.00667 164.131 5.254 163.805 5.45C163.478 5.63667 163.067 5.73 162.573 5.73C162.087 5.73 161.677 5.63667 161.341 5.45C161.014 5.254 160.767 5.00667 160.599 4.708C160.44 4.4 160.361 4.08733 160.361 3.77Z" fill="#2B2B2B"/>
</svg>
