<svg width="21" height="21" viewBox="0 0 21 21" fill="none" xmlns="http://www.w3.org/2000/svg">
<path d="M6.52998 16L11.495 10.705C11.725 10.455 11.92 10.21 12.08 9.97C12.25 9.72 12.375 9.47 12.455 9.22C12.545 8.96 12.59 8.69 12.59 8.41C12.59 8.18 12.545 7.955 12.455 7.735C12.365 7.515 12.23 7.315 12.05 7.135C11.88 6.955 11.67 6.81 11.42 6.7C11.17 6.59 10.885 6.535 10.565 6.535C10.115 6.535 9.72498 6.64 9.39498 6.85C9.07498 7.05 8.82998 7.345 8.65998 7.735C8.48998 8.115 8.40498 8.57 8.40498 9.1H7.12998C7.12998 8.35 7.26498 7.695 7.53498 7.135C7.80498 6.565 8.19498 6.125 8.70498 5.815C9.22498 5.495 9.84498 5.335 10.565 5.335C11.145 5.335 11.645 5.435 12.065 5.635C12.485 5.825 12.83 6.075 13.1 6.385C13.37 6.685 13.57 7.01 13.7 7.36C13.83 7.71 13.895 8.045 13.895 8.365C13.895 8.905 13.765 9.44 13.505 9.97C13.245 10.5 12.91 10.975 12.5 11.395L9.15498 14.8H13.94V16H6.52998Z" fill="#2B2B2B"/>
<circle cx="10.5" cy="10.5" r="10" stroke="#2B2B2B"/>
</svg>
